<mxfile host="app.diagrams.net" modified="2023-09-06T18:18:44.056Z" agent="Mozilla/5.0 (Windows NT 10.0; Win64; x64) AppleWebKit/537.36 (KHTML, like Gecko) Chrome/116.0.0.0 Safari/537.36" etag="-szQS3kMaVCLXmZ0_1cW" version="21.7.2" type="device">
  <diagram id="C5RBs43oDa-KdzZeNtuy" name="Page-1">
    <mxGraphModel dx="989" dy="545" grid="1" gridSize="10" guides="1" tooltips="1" connect="1" arrows="1" fold="1" page="1" pageScale="1" pageWidth="827" pageHeight="1169" math="0" shadow="0">
      <root>
        <mxCell id="WIyWlLk6GJQsqaUBKTNV-0" />
        <mxCell id="WIyWlLk6GJQsqaUBKTNV-1" parent="WIyWlLk6GJQsqaUBKTNV-0" />
        <mxCell id="jG585RBXwGGmoAw3CfAc-0" value="&lt;span style=&quot;font-weight: normal;&quot;&gt;&lt;i&gt;Coffee&lt;/i&gt;&lt;/span&gt;" style="swimlane;fontStyle=1;align=center;verticalAlign=top;childLayout=stackLayout;horizontal=1;startSize=26;horizontalStack=0;resizeParent=1;resizeParentMax=0;resizeLast=0;collapsible=1;marginBottom=0;whiteSpace=wrap;html=1;" vertex="1" parent="WIyWlLk6GJQsqaUBKTNV-1">
          <mxGeometry x="200" y="122" width="160" height="60" as="geometry" />
        </mxCell>
        <mxCell id="jG585RBXwGGmoAw3CfAc-2" value="" style="line;strokeWidth=1;fillColor=none;align=left;verticalAlign=middle;spacingTop=-1;spacingLeft=3;spacingRight=3;rotatable=0;labelPosition=right;points=[];portConstraint=eastwest;strokeColor=inherit;" vertex="1" parent="jG585RBXwGGmoAw3CfAc-0">
          <mxGeometry y="26" width="160" height="8" as="geometry" />
        </mxCell>
        <mxCell id="jG585RBXwGGmoAw3CfAc-3" value="+ create_coffee(size)" style="text;strokeColor=none;fillColor=none;align=left;verticalAlign=top;spacingLeft=4;spacingRight=4;overflow=hidden;rotatable=0;points=[[0,0.5],[1,0.5]];portConstraint=eastwest;whiteSpace=wrap;html=1;" vertex="1" parent="jG585RBXwGGmoAw3CfAc-0">
          <mxGeometry y="34" width="160" height="26" as="geometry" />
        </mxCell>
        <mxCell id="jG585RBXwGGmoAw3CfAc-4" value="CoffeeMaker" style="swimlane;fontStyle=1;align=center;verticalAlign=top;childLayout=stackLayout;horizontal=1;startSize=26;horizontalStack=0;resizeParent=1;resizeParentMax=0;resizeLast=0;collapsible=1;marginBottom=0;whiteSpace=wrap;html=1;" vertex="1" parent="WIyWlLk6GJQsqaUBKTNV-1">
          <mxGeometry x="480" y="90" width="160" height="112" as="geometry" />
        </mxCell>
        <mxCell id="jG585RBXwGGmoAw3CfAc-5" value="" style="line;strokeWidth=1;fillColor=none;align=left;verticalAlign=middle;spacingTop=-1;spacingLeft=3;spacingRight=3;rotatable=0;labelPosition=right;points=[];portConstraint=eastwest;strokeColor=inherit;" vertex="1" parent="jG585RBXwGGmoAw3CfAc-4">
          <mxGeometry y="26" width="160" height="8" as="geometry" />
        </mxCell>
        <mxCell id="jG585RBXwGGmoAw3CfAc-6" value="+ __init__(coffee: Coffee)" style="text;strokeColor=none;fillColor=none;align=left;verticalAlign=top;spacingLeft=4;spacingRight=4;overflow=hidden;rotatable=0;points=[[0,0.5],[1,0.5]];portConstraint=eastwest;whiteSpace=wrap;html=1;" vertex="1" parent="jG585RBXwGGmoAw3CfAc-4">
          <mxGeometry y="34" width="160" height="26" as="geometry" />
        </mxCell>
        <mxCell id="jG585RBXwGGmoAw3CfAc-7" value="+ set_coffee(coffee: Coffee)" style="text;strokeColor=none;fillColor=none;align=left;verticalAlign=top;spacingLeft=4;spacingRight=4;overflow=hidden;rotatable=0;points=[[0,0.5],[1,0.5]];portConstraint=eastwest;whiteSpace=wrap;html=1;" vertex="1" parent="jG585RBXwGGmoAw3CfAc-4">
          <mxGeometry y="60" width="160" height="26" as="geometry" />
        </mxCell>
        <mxCell id="jG585RBXwGGmoAw3CfAc-8" value="+ make(size)" style="text;strokeColor=none;fillColor=none;align=left;verticalAlign=top;spacingLeft=4;spacingRight=4;overflow=hidden;rotatable=0;points=[[0,0.5],[1,0.5]];portConstraint=eastwest;whiteSpace=wrap;html=1;" vertex="1" parent="jG585RBXwGGmoAw3CfAc-4">
          <mxGeometry y="86" width="160" height="26" as="geometry" />
        </mxCell>
        <mxCell id="jG585RBXwGGmoAw3CfAc-14" value="EspressoMaker" style="swimlane;fontStyle=1;align=center;verticalAlign=top;childLayout=stackLayout;horizontal=1;startSize=26;horizontalStack=0;resizeParent=1;resizeParentMax=0;resizeLast=0;collapsible=1;marginBottom=0;whiteSpace=wrap;html=1;" vertex="1" parent="WIyWlLk6GJQsqaUBKTNV-1">
          <mxGeometry x="110" y="242" width="160" height="60" as="geometry" />
        </mxCell>
        <mxCell id="jG585RBXwGGmoAw3CfAc-15" value="" style="line;strokeWidth=1;fillColor=none;align=left;verticalAlign=middle;spacingTop=-1;spacingLeft=3;spacingRight=3;rotatable=0;labelPosition=right;points=[];portConstraint=eastwest;strokeColor=inherit;" vertex="1" parent="jG585RBXwGGmoAw3CfAc-14">
          <mxGeometry y="26" width="160" height="8" as="geometry" />
        </mxCell>
        <mxCell id="jG585RBXwGGmoAw3CfAc-16" value="+ create_coffee(size)" style="text;strokeColor=none;fillColor=none;align=left;verticalAlign=top;spacingLeft=4;spacingRight=4;overflow=hidden;rotatable=0;points=[[0,0.5],[1,0.5]];portConstraint=eastwest;whiteSpace=wrap;html=1;" vertex="1" parent="jG585RBXwGGmoAw3CfAc-14">
          <mxGeometry y="34" width="160" height="26" as="geometry" />
        </mxCell>
        <mxCell id="jG585RBXwGGmoAw3CfAc-19" value="MoccaMaker" style="swimlane;fontStyle=1;align=center;verticalAlign=top;childLayout=stackLayout;horizontal=1;startSize=26;horizontalStack=0;resizeParent=1;resizeParentMax=0;resizeLast=0;collapsible=1;marginBottom=0;whiteSpace=wrap;html=1;" vertex="1" parent="WIyWlLk6GJQsqaUBKTNV-1">
          <mxGeometry x="290" y="242" width="160" height="60" as="geometry" />
        </mxCell>
        <mxCell id="jG585RBXwGGmoAw3CfAc-20" value="" style="line;strokeWidth=1;fillColor=none;align=left;verticalAlign=middle;spacingTop=-1;spacingLeft=3;spacingRight=3;rotatable=0;labelPosition=right;points=[];portConstraint=eastwest;strokeColor=inherit;" vertex="1" parent="jG585RBXwGGmoAw3CfAc-19">
          <mxGeometry y="26" width="160" height="8" as="geometry" />
        </mxCell>
        <mxCell id="jG585RBXwGGmoAw3CfAc-21" value="+ create_coffee(size)" style="text;strokeColor=none;fillColor=none;align=left;verticalAlign=top;spacingLeft=4;spacingRight=4;overflow=hidden;rotatable=0;points=[[0,0.5],[1,0.5]];portConstraint=eastwest;whiteSpace=wrap;html=1;" vertex="1" parent="jG585RBXwGGmoAw3CfAc-19">
          <mxGeometry y="34" width="160" height="26" as="geometry" />
        </mxCell>
        <mxCell id="jG585RBXwGGmoAw3CfAc-22" value="" style="endArrow=block;dashed=1;endFill=0;endSize=12;html=1;rounded=0;exitX=0.603;exitY=0.01;exitDx=0;exitDy=0;exitPerimeter=0;entryX=0.267;entryY=1.102;entryDx=0;entryDy=0;entryPerimeter=0;" edge="1" parent="WIyWlLk6GJQsqaUBKTNV-1" source="jG585RBXwGGmoAw3CfAc-14" target="jG585RBXwGGmoAw3CfAc-3">
          <mxGeometry width="160" relative="1" as="geometry">
            <mxPoint x="190" y="220" as="sourcePoint" />
            <mxPoint x="350" y="220" as="targetPoint" />
          </mxGeometry>
        </mxCell>
        <mxCell id="jG585RBXwGGmoAw3CfAc-23" value="" style="endArrow=block;dashed=1;endFill=0;endSize=12;html=1;rounded=0;exitX=0.25;exitY=0;exitDx=0;exitDy=0;entryX=0.625;entryY=1.049;entryDx=0;entryDy=0;entryPerimeter=0;" edge="1" parent="WIyWlLk6GJQsqaUBKTNV-1" source="jG585RBXwGGmoAw3CfAc-19" target="jG585RBXwGGmoAw3CfAc-3">
          <mxGeometry width="160" relative="1" as="geometry">
            <mxPoint x="270" y="242" as="sourcePoint" />
            <mxPoint x="317" y="184" as="targetPoint" />
          </mxGeometry>
        </mxCell>
        <mxCell id="jG585RBXwGGmoAw3CfAc-24" value="" style="endArrow=diamondThin;endFill=0;endSize=24;html=1;rounded=0;exitX=1.008;exitY=0.174;exitDx=0;exitDy=0;exitPerimeter=0;entryX=-0.017;entryY=0.351;entryDx=0;entryDy=0;entryPerimeter=0;" edge="1" parent="WIyWlLk6GJQsqaUBKTNV-1" source="jG585RBXwGGmoAw3CfAc-3" target="jG585RBXwGGmoAw3CfAc-7">
          <mxGeometry width="160" relative="1" as="geometry">
            <mxPoint x="380" y="160" as="sourcePoint" />
            <mxPoint x="510" y="160" as="targetPoint" />
          </mxGeometry>
        </mxCell>
        <mxCell id="jG585RBXwGGmoAw3CfAc-25" value="&lt;b&gt;Client&lt;/b&gt;" style="html=1;whiteSpace=wrap;" vertex="1" parent="WIyWlLk6GJQsqaUBKTNV-1">
          <mxGeometry x="520" y="240" width="90" height="27" as="geometry" />
        </mxCell>
        <mxCell id="jG585RBXwGGmoAw3CfAc-26" value="" style="html=1;verticalAlign=bottom;endArrow=block;curved=0;rounded=0;entryX=0.501;entryY=0.997;entryDx=0;entryDy=0;entryPerimeter=0;exitX=0.451;exitY=0.007;exitDx=0;exitDy=0;exitPerimeter=0;" edge="1" parent="WIyWlLk6GJQsqaUBKTNV-1" source="jG585RBXwGGmoAw3CfAc-25" target="jG585RBXwGGmoAw3CfAc-8">
          <mxGeometry width="80" relative="1" as="geometry">
            <mxPoint x="560.74" y="242.00399999999996" as="sourcePoint" />
            <mxPoint x="559.26" y="203.03599999999994" as="targetPoint" />
          </mxGeometry>
        </mxCell>
      </root>
    </mxGraphModel>
  </diagram>
</mxfile>
